<?xml version="1.0" encoding="UTF-8"?>
<svg id="Layer_1" data-name="Layer 1" xmlns="http://www.w3.org/2000/svg" viewBox="0 0 1920 1080">
  <defs>
    <style>
      .cls-1 {
        fill: #4f4f4f;
      }

      .cls-1, .cls-2, .cls-3, .cls-4, .cls-5, .cls-6, .cls-7, .cls-8 {
        stroke-width: 0px;
      }

      .cls-2 {
        fill: #5078cb;
      }

      .cls-3 {
        fill: #7095d9;
      }

      .cls-4 {
        fill: #3b4fbd;
      }

      .cls-5 {
        fill: #c77dbf;
      }

      .cls-6 {
        fill: #9179b4;
      }

      .cls-7 {
        fill: #9bb7df;
      }

      .cls-8 {
        fill: #e8cedd;
      }
    </style>
  </defs>
  <path class="cls-1" d="m957.23,1090.92c-306.12,0-612.24-.59-918.35.78-36.46.16-49.31-7.43-49.12-47.15,1.63-339.64,1.63-679.29,0-1018.93-.19-39.85,12.88-47.1,49.2-47.03,613.92,1.05,1227.85,1.22,1841.77-.28,42.58-.1,49.47,14.69,49.33,52.49-1.23,336.25-1.59,672.5.33,1008.74.25,44.41-14.44,52.46-54.82,52.25-306.11-1.59-612.23-.87-918.35-.87Z"/>
  <path class="cls-1" d="m954.15,1049.99c-12.33.03-24.65.06-36.98.09-27.69-20.02-55.42-12.77-83.17-.16-14.48-.11-28.95-.23-43.43-.34-7.65-6.05-14.82-12.36-13.08-23.64,1.28-4.74,4.01-8.42,8.12-11.08,24.25-4.56,49.19-5.41,70.16-22.28,41.39-33.29,39.98-61.36-6.47-97.7-2.1-7.31-1.26-14.15,3.23-20.4,1.39-.91,2.74-2.42,4.26-2.62q72.64-9.47,80.6-89.92c.25-7.32,1.95-14.16,6.44-20.09,46.81-12.3,58.83-55.84,80.62-90.64,4.62-1.79,9.23-1.81,13.81.15,8.71,9.39,9.7,21.12,8.9,32.91-1.22,17.98.33,33.53,21.46,39.4,22.8,6.33,42.95,2.26,60.45-13.66,16.01-14.56,6.73-30.15,2.28-46.26-6.28-22.76-25.4-39.54-28.19-63.67,20.91-32.69,58.44-29.21,89.02-39.67,41.28-14.12,46.71-26.76,18.78-60.1-11.03-13.16-26.05-21.21-40.16-30.44-13.86-9.06-30.7-15.17-35.33-34.03,7.39-19.35,22.11-18.39,38.1-13.99,28.94,9.07,54.45,25.27,80.95,39.47,6.24,4.34,10.88,10,13.85,17,6.97,22.33,7.77,46.91,22.66,66.47,12.73,16.71,27.69,30.71,50.91,24.86,24.14-6.07,35.16-22.75,37.48-47.71,2.63-28.35-7.33-57.16,3.52-85.13,12-11,25.82-15.95,42.03-12.98,25.38,25.97,6.51,57.69,10.47,86.5,3.09,22.5,1.26,45.33,32.68,47.02,27.29,1.47,51.32-2.52,58.58-34.52,5.21-22.98,12.96-45.91,8.78-69.91-2.45-14.07-1.41-23.69,10.35-35.42,42.6-42.48,35.28-86.96-17.01-117.75-5.81-3.42-11.77-6.53-16.86-11.1-4.76-5.99-7.14-12.91-8.04-20.41,6.32-66.89-10.12-86.94-64.28-79.81-28.93,3.81-46.41,16.05-45.76,48.37.34,16.7-2.51,33.55-4.36,50.36-8.4,20.06-25.71,22.92-44.36,23.27-7.77-2-13.19-6.85-16.67-13.98-.66-5.09,0-10.09,2.3-14.69,36.55-72.99,30.22-96.9-37.66-141.65-3.49-3.4-5.72-7.5-6.63-12.3,11.47-43.01,25.63-86.67-27.2-114.32-2.59-4.58-2.15-8.85,1.27-12.82,59.18.31,118.37.61,177.55.92,24.56,12.69,48.99,11.13,73.33-.64,21.88-.05,43.77-.1,65.65-.16,14.98,12.22,30.05,8.62,45.16.28,29.17-.11,58.33-.23,87.5-.34,23.3,11.73,46.53,14.51,69.64-.5,31.37.38,62.88-.61,94.01,2.32,5.96.56,10.49,16.53,15.68,25.38-12.11,17.09-5.99,34.25-.21,51.42.21,28.12.42,56.24.64,84.36-4.16,5.27-7.19,11.33-11.23,16.66-45.03,59.38-43.72,77.44,10.35,141.21.09,49.04.19,98.07.28,147.11-5.44,6.32-9.54,13.41-13.57,20.76-25.43,46.35-41.13,91.39,12.95,129.61.19,44.99.39,89.98.58,134.97-5.49,6.25-9.79,13.75-16.46,18.72-35.65,26.55-36.81,52.8-.24,79.55,8.35,6.1,11.15,16.41,16.61,24.7-.05,13.9-.1,27.8-.14,41.71-16.12,1.99-22.72-11.93-32.67-20.01-22.78-18.48-45.19-37.35-74.81-11.84-16.58,14.28-38.04,28.9-24.7,53.82,16.3,30.43,41.1,52.86,79.51,50.53,17.56-1.06,34.42-15.71,52.69-2.61-.05,7.8-.09,15.59-.14,23.39-12.21,12.92-30.54,9.55-44.82,16.98-16.12.21-32.24.43-48.35.64-38.51-24.06-77.03-30.91-115.57-.08-11.13.12-22.27.23-33.4.35-5.66-25.97,16.93-33.5,30.6-46.51,15.01-14.29,30.11-28.55,21.17-51.78-6.42-16.67-21.24-20.91-37.32-18.2-24.02,4.06-44.28,12.47-51.71,40.24-7.8,29.15,14.65,50.09,16.85,76.14-43.7-.01-87.4-.02-131.1-.04-30.04-20.27-60.17-19.01-90.39-.43-48.5.18-97,.35-145.5.53-9.99-8.82-28.56-4.83-32.85-22.15-.13-4.8,1.59-8.9,4.84-12.38,22.11-7.19,36.6-24.05,51.15-40.9,7.04-2.51,13.79-1.98,20.27,1.79,14.08,25.66,34.75,40.82,64.86,37.5,23.28-2.57,41.23-15.18,48.51-37.97,6.78-21.24-8.63-33.27-22.27-46.47-17.82-17.26-48.96-15.91-58.95-43.51,1.34-23.28,3.44-46.25,24.42-61.62,26.49-1.22,18.84,21.98,25.18,35.33,11.84,24.93,56.17,46.56,75.02,35.18,28.5-17.2,24.24-46.16,19.07-72.01-7.24-36.26-46.55-17.5-65.8-34.6,28.94-42.97,22.8-88.7,9.79-134.64-9.81-34.64-24.85-39.94-53.62-18.92-28.51,20.83-35.87,51.12-35.09,84.51.3,12.71,9.41,30.04-6.79,35.89-15.82,5.72-33.41,1.64-41.27-17.99-4.59-22.71,9.39-42.22,10.92-63.95,1.57-22.27-4.54-42.07-26.21-49.39-32.86-11.1-64.29,1.11-88.29,21.86-16.47,14.24.52,33.86,8.21,50.31,8.32,17.8,32.63,25.36,31.05,49.34-3.52,3.68-7.67,6.55-12.51,7.97-82.65,24.24-85.33,29.56-56.11,112.07.5,4.86-.55,9.43-2.83,13.72-8.94,8.25-21.63,8.99-31.38,15.19-22.96,14.59-54.85,21.3-51.63,59.68,3.04,36.25,24.94,52.69,57.52,59.46,4.13,2.81,6.77,6.61,7.78,11.53-.87,15.13-15.26,17.41-23.79,25.27-34.8-.09-69.61-.18-104.41-.26,16.67-28.33,38.17-55.16,14.61-90.87-15.88-24.07-33.92-44.78-64.63-35.28-22.09,6.84-33.77,69.32-20.28,90.14,7.56,11.68,26.88,16.72,20.71,36.29Z"/>
  <path class="cls-1" d="m93.64,1049.81c-29.03-.89-65.67,9.79-61.85-41.03,33.22-10.34,70.36-.19,101.81-21.95,23.63-16.34,29.1-29.07,5.21-51.11-32.95-30.4-68.38-29.8-106.89-16.95-.08-11.24-.17-22.49-.25-33.73,15.98-19.65,33.53-37.73,53.03-53.93,7.28-1.99,14.09-1.09,20.34,3.3,12.38,24.34,27.99,45.44,53.52,57.77,33.58,16.21,60.62-.24,60.81-37.61.25-48.08-32.43-70.24-69.57-88.89-4.03-6.4-5.59-13.45-5.59-20.92,4.01-26.81,7.9-53.63,6.12-80.95-1.52-23.34-6.34-46.6-33.37-49.82-28.75-3.42-41.67,18.41-48.82,42.48-7.62,25.68-4.72,54.51-23.07,77.03-4.33,3.32-8.72,3.26-13.17.31-.17-221.42.82-442.86-1.51-664.25-.44-41.95,13.37-55.29,51.87-49.29,4.62,16.71-11.14,23.04-17.38,34.19-14.55,25.99-15.37,52.19,2.03,76.48,12.27,17.13,29.68,28.97,52.25,23.5,23.61-5.72,28.03-24.96,31.74-46.49,5.64-32.76-18.32-57.24-20.45-87.36,48.42,2.95,96.84,5.9,145.26,8.85,3,4.37,3.25,8.8.35,13.29-9.29,8.31-21.19,10.1-32.72,12.45-22.68,4.62-35.85,16.4-36.3,41.37-.49,26.79,13.44,40.05,37.27,47.15,17.91,5.34,36.95,4.75,54.5,11.44,4.18,2.22,7.4,5.45,9.7,9.59,1.24,11.1-6.84,15.81-14.19,21.03-10.41,2.25-8.4,9.35-6.29,16.57-2.4,3.97-5.76,6.69-10.01,8.42-9.48,2.32-18.37,1.07-26.68-4.08-23.98-20.01-50.65-37.16-80.85-17.61-38.74,25.08-25.08,63.89-19.03,99.56,2.79,6.77,5.01,13.67,5.75,21-.31,5.1-2.23,9.53-5.47,13.43-5.75,5.12-12.39,7.72-20.12,7.18-52.85-4.38-64.81,5.31-67.26,55.03-.58,11.87.7,23.86-.32,35.66-3.28,38.12,14.88,43.91,45.77,31.54,4.82.09,9.34,1.29,13.55,3.66,7.25,9.14,6.26,19.23.94,28.19-21.39,36.04-10.33,63.54,20.96,86.64,34.18,25.24,58.96,8.25,82.04-17.7,2.2-2.48,5.15-4.22,8.03-5.98,6.95-2.98,13.84-2.95,20.64.45,7.73,6.5,11.38,16.34,18.37,23.39,40.54,40.92,64.69,36.28,86-16.15,1.9-4.67,5.81-7.94,10.3-10.41,10.26-3.4,19.92-2.61,28.79,3.95,11.8,27.27,30.5,42.57,62.16,40.06,14.94-1.18,30.3,2.01,41.63,14.18,10.11,18.18,8.6,39.1,13.34,58.6,13.3,54.65,20.44,59.11,76.19,44.29,14.02-4.05,17.73-21.69,32.4-24.89,14.58,6.38,15.14,18.9,14.14,32.17-2.12,10.54-7.66,18.92-15.95,25.52-9.81,6.82-21.22,10.22-32.28,14.31-22.66,8.38-28.96,25.86-28.98,48.25-.03,24.61,8.75,41.96,32.57,51.74,20,8.21,43.72,8.03,59.63,25.86,3.85,6.9,4.72,14.2,3.09,21.87-1.62,5.08-4.78,8.9-9.4,11.5-7.35,2.57-14.67,2.24-21.93-.26-12.33-4.91-24.32-10.76-37.28-14.27-67.34-18.25-109.98,22.72-93.29,89.93,2.41,9.69,7.73,18.55,8.67,28.75-.14,7.41-2.96,13.54-8.68,18.25-13.34,8.44-30.68,5.09-43.65,14.79-35.4.2-70.79.41-106.19.61-15.62-7.95-31.32-7.51-47.08-.46-31.73.21-63.45.42-95.18.63-36.54-41.38-73.14-11.58-109.72-.09Z"/>
  <path class="cls-1" d="m925.3,20.7c24.65.14,49.29.28,73.94.42,21.63,11.67,43.28,11.47,64.94.07,14.94-.24,29.87-.48,44.81-.72,3.53,19.39-12.55,25.35-23.49,35.08-39.11,34.76-35.27,66.5,10.74,88.88,15.08,7.34,31.39,12.44,43.07,25.57,2.27,4.37,3.13,8.99,2.48,13.89-17.56,39.27-29.46,80.5-41.23,121.78-1.61,7.22-4.23,14.02-8.22,20.27-6.45,7.99-14.98,12.47-24.76,14.8-4.81.33-9.44-.55-13.85-2.49-29.97-21.52-61.32-38.18-100.17-27.76-7.42-1.89-12.18-6.66-14.86-13.71-2.9-10.1-.25-20.19,0-30.31.66-27.99-14.99-44.43-39.8-52.08-28.66-8.84-49.38,6.73-65.54,27.56-14.77,19.03-18.22,39.98.97,59.65,7.07,7.24,14.3,14.65,14.07,26.01-2.51,11.23-10.51,15.34-20.93,16.35-41.66-23.51-82.58-27.09-122.19,4.75-4.84,1.22-9.54.79-14.12-1.18-8.34-5.79-13.44-14.06-17.65-23.03-15.37-45.59-41.71-86.22-59.04-130.95.51-4.88,2.27-9.29,5.19-13.23,16.7-12,37.47-12.83,55.91-20.24,23.03-9.26,41.44-22.21,42.3-49.77.93-30.17-21.22-38.58-44.35-45.57-6.36-1.92-12.8-3.59-19-6.14-6.89-3.2-12.14-8.12-15.75-14.82-3.81-12.45,4.11-18.06,13.27-22.94,9.82.04,19.63.08,29.45.12,41.04,13.36,82.09,28.29,123.08-.13,8.9-.06,17.79-.11,26.69-.17,31.33,36.8,62.71,14.99,94.08.06Z"/>
  <path class="cls-1" d="m680.55,325.39c3.85,6.81,7.7,13.61,11.55,20.42-1.41,1.94-2.83,3.88-4.21,5.85-24.18,13.1-51.18,21.81-65.89,48.65-4.53,8.26-14.15,13.97-25.14,7.23-7.65-9.35-7.74-22.13-13.95-31.97-10.64-16.85-27.92-27.42-46.27-24.18-23.24,4.11-13.55,26.69-14.99,41.91-1.26,13.24-.89,26.8,1.75,40.02,2.35,11.76,5.98,24.04,18.05,28.32,16.18,5.73,17.65-10.38,23.98-19.14,9.93-13.72,16.14-35.26,40.57-20.71,8.92,17.23,7.83,35.77,7.44,54.24-.38,10.46-1.99,20.65-6.95,29.99-19.68,13.98-46.41,16.91-61.18,38.89-14.13,2.14-21.75-6.39-26.73-17.61-12.57-28.3-30.33-46.34-64.79-42.83-33.63,3.43-43.58,25.25-48.35,53.61-1.12,6.68-5.34,11.98-13.16,12.5-6.88-.01-13.75-.03-20.63-.04-29.34-20.46-18.15-48.67-14.42-75.47,3-8.27,8.18-14.93,15.15-20.12,10.08-6.47,21.65-8.58,33.29-9.8,34.61-3.62,59.87-12.68,60.02-57.1.15-43.5-22.99-55.12-58.46-58.56-6.66-.65-13.16-2.38-19.55-4.58-7.3-3.07-12.86-7.94-16.01-15.35-2.25-8.11-2.64-16.6-.44-24.5,16.75-60.36-24.92-86-65.65-112.29-.88-5.21-1.77-10.42-2.65-15.63-1.42-40.37,3.28-82.24-28.14-115.23.3-4.16.6-8.32.9-12.49,5.52.33,11.03.67,16.54,1.01,15.57,1.07,31.99-2.97,45.99,7.66,6.97,8.29,9.17,18.28,10.13,28.69.78,8.35.29,16.79.39,25.21.72,60.85,6.49,67.38,67.9,77.15,6.88,3.25,11.71,8.37,14.23,15.61,1.11,17.28-9.12,32.17-10.16,49.13-1.64,26.63,5.91,45.73,34.7,52.77,29.77,7.28,43.21-7.51,52.33-32.99,8.36-23.33,6.03-46.34,2.16-69.74-.16-7.36,1.42-14.23,5.71-20.31,74.14.92,101.76-44.72,70.63-116.88.59-5.57,3.31-9.63,8.17-12.32,16.05-4.98,31.64-6.49,45.46,5.77,3.69,3.86,7.38,7.72,11.08,11.58-8.13,43.87-18.29,87.27-30.32,130.23-.29,4.4-.58,8.81-.87,13.21-24.43,15.89-54.74,21.75-63.9,58.77-8.46,34.18.33,48.5,30.96,61.93,31.39,13.76,64.28-8.95,93.72,9.47Z"/>
  <path class="cls-1" d="m620.19,732.46c3.52-6.44,7.04-12.88,10.56-19.32,67.45,3.72,64.35-53.14,79.98-93.95,7.02-3.73,14.14-3.9,21.34-.65,13.61,13,12.59,30.41,12.82,46.85.46,33.25,15.31,54.5,48.56,59.37,31.47,4.62,44.95-15.05,51.55-42.33,1.17-4.85,4.41-8.93,7.79-12.73,9.34-5.93,19.04-6.31,29.07-2.02,13.72,36.95,45.74,61.56,64.07,95.42-.14,6.96-.28,13.93-.42,20.89-16.5,9.56-28.6-2.43-41.78-8.72-39.78-18.98-68.98-14.91-82.91,14.06-16.79,34.94-15.62,65.36,27.67,80.47,2.87,1,4.29,4.96,5.54,8.2.01,6.02.02,12.03.03,18.05-8.58,11.3-20.55,8.73-32.29,8.42-55.1-1.46-57.22,1.57-43.22,57.35,4.48,17.85,11.53,35.55,5.12,54.47-.92,5.79-1.84,11.57-2.76,17.36-12.1,8.35-28.55,6.03-39.83,16.37-15.91.03-31.81.05-47.72.08-6.95-9.96.51-16.34,6.98-20.42,25.64-16.21,36.77-35.62,27.85-67.9-8.98-32.45-29.72-42.37-59.13-44.23-6.78-.43-12.74-4.07-17.4-9.32.66-9.32,1.31-18.64,1.97-27.96,17.26-8.73,36.02-5.56,54.16-6.5,28.77-1.5,47.78-13.87,51.81-43.94,2.8-20.88,14.6-43.18-5-61.73-19.89-18.82-40.83-15.48-64.47-4.23-33.35,15.87-51.79-9.11-69.92-31.41Z"/>
  <path class="cls-1" d="m1087.32,324.51c.45-6.9.89-13.8,1.34-20.7,15.54-11.45,31.79-4.92,47.89-1.88,22.75,4.3,49.69,13.99,56.4-19.72,5.68-28.53,12.55-60.68-21.09-80.18-11.27-6.54-25.9-7.31-33.67-19.83-.3-5.47-.6-10.93-.91-16.4-3.45-48.49-5.96-96.98-.19-145.48,41.16.12,82.31.25,123.47.38-.14,2.5-.22,5.01-.24,7.51-6.53,12.32-18.88,13.51-30.33,14.54-27,2.43-36.48,17.46-38.25,43.54-4.68,68.61,6.61,78.54,73.06,60.12,6.68-1.85,13.29-.93,19.61,1.91,3.73,4.31,7.47,8.62,11.2,12.93.8,11.02-4.33,20.05-12.35,26.01-33.13,24.62-36.57,58.72-27.57,94.29,9.56,37.79,47.62,21.07,71.09,32.88,4.87,3.68,9.73,7.37,14.6,11.05,3.13,23.03-17.53,30.35-28.74,43.95-4.5,1.75-9.15,2.36-13.96,1.79-8.24-1.96-15.48-6.21-22.98-9.95-52.39-26.09-56.96-24.15-77.43,32.99-2.91,8.13-6.92,15.23-13.75,20.61-6.16,4.15-12.79,6.73-20.35,6.02-4.59-2.02-10.65-5.57-10.21-9.62,4.53-42.47-18.93-61.73-55.97-71.24-6.19-1.59-9.48-8.66-10.65-15.52Z"/>
  <path class="cls-2" d="m1888.66,1008.63c-50.2,25.51-98.08,23.7-132.54-23.71-11.54-15.88-16.49-55.27-6.6-64.38,22.69-20.92,44.09-70.75,89.4-30.65,17.37,15.37,33.2,32.51,49.72,48.84,0,23.3,0,46.6.02,69.9Z"/>
  <path class="cls-7" d="m130.46,20.56c39.67,25.39,40.46,66.44,31.87,103.65-4.54,19.67-36.87,51.4-45.61,48.11-27.08-10.19-58.81-29.87-70.38-54.54-17.29-36.86-5.39-75.83,35.93-97.53,16.07.1,32.13.21,48.2.31Z"/>
  <path class="cls-4" d="m589.96,50.2c21.24,20.76,23.31,83.93,3.04,112.65-23.18,32.85-48.76,16.85-74,2.76-10.15,4.78-19.8,2.89-27.63-4.22-30.25-27.47-22.51-104.64,12.76-130.37,18.51,2.9,37.02,5.8,55.53,8.69,13.6-6.69,21.59,2.92,30.29,10.49Z"/>
  <path class="cls-5" d="m954.15,1049.99c-31.98-27.58-67.35-54.18-30.41-102.36,12.18-15.88,30.84-46.89,35.75-44.85,24.67,10.27,53.14,24.59,66.48,46.11,22.2,35.83,32.7,77.93-22.2,100.81-16.55.09-33.09.19-49.62.29Z"/>
  <path class="cls-7" d="m417.16,172.81c-52.17,15.93-82.54-6.43-81.26-59.9.31-13.2.77-26.39,1.16-39.58,6.99-11.36,8.75-29.45,29.5-23.06,30.35.24,60.69.48,91.04.72,29.16,62.89,15.51,104.02-40.43,121.82Z"/>
  <path class="cls-2" d="m31.92,918.77c42.38-32.58,118.66-18.33,136.99,28.87,4.34,11.19-7.15,37.93-18.6,44.21-36.27,19.9-75.19,39.47-118.52,16.92.05-30,.09-60,.13-90Z"/>
  <path class="cls-7" d="m651.63,908.23c77.58-3.22,73.99-2.19,94.78,70.25,15.5,53.99-39.57,45.09-53.08,71.63-17.43-.09-34.87-.17-52.32-.25-23.22-10.91-32.29-28.16-25.23-53.75,8.51-30.86,11.6-63.83,35.97-88.12l-.12.25Z"/>
  <path class="cls-3" d="m1137.09,20.32c.06,48.52.12,97.05.19,145.53-80.4-8.88-106.89-30.76-89.19-85.06,7.88-24.19,39.85-40.47,60.9-60.33,9.38-.04,18.74-.09,28.11-.13Z"/>
  <path class="cls-8" d="m1625.96,1049.81c-38-19.6-38.86-56.67-26.6-86.28,8.17-19.73,37.12-35.74,59.99-42.6,14.42-4.32,44.59,6.94,49.98,19.11,6.71,15.17.25,41.72-9.74,57.46-13,20.5-35.06,35.21-53.22,52.4-6.8-.04-13.61-.07-20.41-.11Z"/>
  <path class="cls-7" d="m1888.63,341.6c-19.64-18.3-55.06-36.1-55.64-54.99-1.24-40.13,5.81-86.58,56.53-102.88-.3,52.62-.59,105.25-.89,157.87Z"/>
  <path class="cls-2" d="m1888.29,639.09c-18.97-16.6-56.53-38.73-53.56-48.79,10.65-36.06,35.02-68.04,54.19-101.57-.22,50.12-.42,100.24-.63,150.37Z"/>
  <path class="cls-7" d="m84.34,836.13c-17.56,16.31-35.12,32.62-52.68,48.93-.05-43.36-.1-86.72-.15-130.07,26.55-15.79,46.48-.17,61.41,17.62,18.25,21.75,9.18,44.3-8.58,63.52Z"/>
  <path class="cls-1" d="m651.76,907.98c-7.89,30.16-18.59,59.96-22.54,90.63-2.1,16.3,7.49,34.12,11.8,51.25-45.46-.27-90.92-.53-136.38-.8-5.17-7.05-20.94-3.2-18.44-18.12,4.1-3.72,8.21-7.44,12.31-11.16,68.6,3.87,105.32-29.93,115.02-96.94,1.18-8.14,9.25-13.57,18.04-15.56,6.73.23,13.46.47,20.19.7Z"/>
  <path class="cls-1" d="m417.16,172.81c54.08-27.02,45.23-75.1,40.43-121.82,3.78-6.31,7.56-12.63,11.34-18.94,4.06-8.17,9.95-6.58,16.2-3.06,6.34.68,12.67,1.35,19.01,2.03-32.26,52.05-26.67,102.65,14.87,134.59-.5,6.86-1.01,13.72-1.51,20.58-28.92-1.09-57.86-1.11-86.78-1.59-4.52-3.93-9.04-7.86-13.55-11.79Z"/>
  <path class="cls-2" d="m1888.77,897.03c-4.3-2.56-8.87-4.76-12.86-7.74-67.93-50.73-64.76-78.68,12.96-115.23-.04,40.98-.07,81.97-.1,122.96Z"/>
  <path class="cls-1" d="m84.34,836.13c18.07-50.47-3.18-75.13-52.83-81.15.12-7.06.25-14.12.38-21.18,3.45-.09,6.9-.17,10.35-.26,37.82-6.19,73.98,5.9,110.85,10.14.03,6.59.07,13.19.1,19.78-18.45,23.01-25.65,53.97-50.64,72.37-6.07.1-12.14.2-18.21.3Z"/>
  <path class="cls-6" d="m1108.17,1049.97c6.65-6.99,13.3-13.97,19.95-20.96,34.31-32.71,68.02-26.42,101.39,1.58,9.82,6.42,19.64,12.84,29.46,19.27-50.27.03-100.53.07-150.8.11Z"/>
  <path class="cls-7" d="m1679.77,1049.56q53.35-56.18,115.59.09c-38.54-.03-77.07-.06-115.59-.09Z"/>
  <path class="cls-7" d="m93.64,1049.81c62.18-47.97,80.97-47.95,109.72.09-36.58-.03-73.15-.06-109.72-.09Z"/>
  <path class="cls-2" d="m804.53,20.8c-32.17,41.63-62.6,41.66-123.08.12,41.03-.04,82.06-.08,123.08-.12Z"/>
  <path class="cls-7" d="m925.3,20.7c-58.08,52.74-72.38,52.73-94.06-.07,31.34.03,62.7.05,94.06.07Z"/>
  <path class="cls-2" d="m1404.47,1049.33c43.59-43.36,49.28-43.33,90.38.44-30.12-.15-60.25-.29-90.38-.44Z"/>
  <path class="cls-7" d="m335.85,42.1c-14.53-3.89-29.05-7.77-43.59-11.66,24.5,1.43,49.02,2.87,73.53,4.31-6.22,17.88-18.37,11.41-29.94,7.35Z"/>
  <path class="cls-7" d="m834,1049.92c27.76-21.76,55.52-49.68,83.16.16-27.71-.05-55.43-.1-83.16-.16Z"/>
  <path class="cls-8" d="m639.89,40.19c-16.34-1.38-32.68-2.77-49.01-4.15-10.44-.03-25.91,6.31-19.3-15.34,26.8.03,53.6.06,80.41.1-4.02,6.47-8.06,12.93-12.09,19.39Z"/>
  <path class="cls-2" d="m1511.45,20.98c-24.3,21.36-48.74,25.98-73.38.63,24.49-.2,48.94-.42,73.38-.63Z"/>
  <path class="cls-8" d="m1779.39,20.26c-23,32.4-46.31,20.59-69.66.5,23.24-.16,46.45-.33,69.66-.5Z"/>
  <path class="cls-8" d="m1064.18,21.18c-21.69,24.43-43.36,23.93-64.96-.08,21.67.03,43.32.05,64.96.08Z"/>
  <path class="cls-3" d="m741.07,1050.02c13.29-5.48,26.57-10.95,39.85-16.4,3.22,5.34,6.46,10.65,9.68,15.96-16.52.14-33.02.29-49.52.44Z"/>
  <path class="cls-8" d="m486.19,1030.94c6.17,6.04,12.34,12.09,18.48,18.12-17.66.02-35.29.04-52.88.06,11.49-6.06,22.95-12.12,34.4-18.18Z"/>
  <path class="cls-2" d="m1622.26,21.1c-15.17,16.72-30.29,25.14-45.18-.28,15.07.1,30.12.19,45.18.28Z"/>
  <path class="cls-8" d="m1843.7,1049c14.95-5.67,29.9-11.34,44.83-17-14.95,5.68-29.89,11.34-44.83,17Z"/>
  <path class="cls-7" d="m1888.87,99.37c-4.24-17.14-38.34-34.41.22-51.39-.08,17.11-.15,34.25-.22,51.39Z"/>
  <path class="cls-1" d="m335.85,42.1c9.98-2.45,19.96-4.89,29.94-7.34.25,5.17.5,10.35.76,15.52-9.83,7.68-19.67,15.35-29.5,23.04-.4-10.4-.8-20.81-1.2-31.22Z"/>
  <path class="cls-1" d="m571.58,20.7c6.44,5.14,12.87,10.28,19.3,15.38-.31,4.68-.61,9.4-.92,14.12-10.1-3.5-20.19-6.99-30.29-10.49,3.97-6.34,7.94-12.68,11.91-19.02Z"/>
  <path class="cls-6" d="m485.12,28.99c-5.4,1.02-10.81,2.04-16.21,3.06-6.46-1.48-12.93-2.96-19.39-4.45.34-2.3.68-4.6,1.03-6.9,11.52,2.76,23.05,5.52,34.57,8.28Z"/>
  <path class="cls-2" d="m298.54,1049.26c15.7.15,31.39.31,47.09.46-15.7-.16-31.39-.31-47.09-.46Z"/>
  <path class="cls-1" d="m879.86,673.17c-7.12-.02-14.24-.04-21.36-.07-17.32-6.98-15.03-21.79-14.34-35.99,1.82-7.99,5.66-14.83,11.84-20.2,6.76-5.05,14.58-8.14,22.46-11.16,57.74-22.14,70.63-67.48,36.13-120.43-14.98-22.98-38.87-15.98-58.7-22.65-3.87-2.95-6.39-6.8-7.6-11.52,9.07-33.18,21.68-67.13-19.26-89.53-5.29-8.01-12.24-15.76-4.37-25.97,6.2-2.75,12.41-5.5,18.61-8.25,45.12,23.5,66.09-25.32,100.52-33.84,3.93,4.07,7.87,8.15,11.8,12.22,7.87,31.31-17.21,48.94-29.83,71.58-19.18,34.42-14.4,44.28,24.57,47.73,55.41,4.9,62.19.23,77.57-52.06,4.23-14.37,6.67-30.14,22.91-37.18,5.29.11,10.58.21,15.87.32,12.49,9.89,11.42,23.67,10.34,37.29q-5.54,69.75,59.4,84.67c33.95,27.34,71.81,51.19,100.36,83.37,16.7,18.83,5.81,41.44-25.52,48.32-35.13,7.72-69.03,21.07-103.46,31.96-35.77-.56-45.38,33.43-67.2,51.29-5.04-.04-10.08-.09-15.13-.13-28.56-50.1-54.35-56.45-105.79-28.8-14.9,8.01-21.81,26.04-39.81,28.99Z"/>
  <path class="cls-7" d="m1273.73,739.41c18.89,4.59,37.77,9.18,57.58,13.99-22.38-71.27-3.84-117.49,51.75-143.24,28.04-12.99,42.26-4.67,48.4,21.85,8,34.57,15.65,69.48,19.52,104.68,5.05,45.93-41.73,27.58-60.03,45.22,7.76,9.65-3.97,6.36-6.03,9.48-4.89,1.87-9.18,4.65-11.91,9.44-2.95,6.4-4.93,13.45-11.51,17.36-11.44,22.43-22.87,44.85-34.31,67.28-2.34,9.52-9.53,14.18-17.72,17.91-8.93,2.94-17.89,3.1-26.97.5-4.56-1.58-8.79-3.74-12.85-6.34-20.4-12.67-32.07-30.46-32.1-55.1-.68-12.74-.74-25.49-.6-38.26-.85-25.36,9.89-46.05,25.76-64.69,4.44-3.36,8.53-8.78,14.95-5.5,4.16,2.12,2.16,3.1.85,4.94-3.88,5.45,1.48-2.13-4.76.49Z"/>
  <path class="cls-7" d="m1514.34,307.01c44.43-2.49,71.01,19.42,70.47,63.09-.41,33.39,17.94,84.77-49.88,78.7,37.47,43.12,6.25,84.49-4.96,122.76-3.58,12.2-42.43,15.69-65.72,19.95-32.56,5.95-47.5-10.12-43.88-42.85,3.95-35.77,8.6-71.46,12.94-107.19-2.79,1.97-6.51,3.32-6.64,2.82-2.7-9.93,5.32-11.77,11.48-14.99,12.1-5.66,26.36,1.56,39.16-6.53-4.23-27.49-10.54-55.16-1.42-82.96,8.12-16.48,18.82-29.95,38.46-32.8Z"/>
  <path class="cls-7" d="m1881.51,706.23c-.12,34.95-36.44,84.95-56.96,73.71-32.78-17.95-75.16-44.75-83.28-75.78-14.9-56.93,11.87-84.22,55.72-82.99,48.76,1.36,84.68,37.52,84.53,85.06Z"/>
  <path class="cls-6" d="m854.02,878c-17.07-17.86-65.99,7.74-58.81-42.82,5.77-40.64,11.41-87.77,64.01-87.05,28.91.39,57.53,23.18,86.28,35.87.56,3.29,1.81,6.62,1.58,9.86-7.51,108.54-.74,98.85-93.06,84.15Z"/>
  <path class="cls-8" d="m879.86,673.17c18.73-46.42,87.09-75.53,127.72-49.96,11.72,7.37,12.24,32.68,17.88,49.77-9.63,45.08-16.3,92.78-79.55,90.14-30.61-23.62-73.75-37.95-66.06-89.94Z"/>
  <path class="cls-7" d="m1284.41,148.33c-11.65,6.56-23.43,12.92-34.94,19.71-41.54,24.51-70.37,8.1-72.19-41.2-.06-1.68.01-3.37-.02-5.06q-1.71-87.22,83.07-93.57c63.6,27.3,71.09,64.67,24.08,120.11Z"/>
  <path class="cls-7" d="m1891.79,424.39c-14.96,17.9-26.93,45.83-45.56,51.45-31.31,9.44-108.62-41.56-107.82-62.44,2.13-55.65,27.76-88.49,67.96-87.09,40.39,1.41,75.59,43.24,85.42,98.08Z"/>
  <path class="cls-6" d="m1326.78,314.44c-32.75,15.93-63.87,12.19-85.1-17.2-17.44-24.14-.51-93.55,22.18-111.02,10.67-8.21,21.15-16.66,31.73-24.98,21.92,13.6,58.36,23.58,62.76,41.5,9.46,38.56,14.97,85.08-31.57,111.7Z"/>
  <path class="cls-3" d="m1381.9,458.55c3.94,26.04,7.14,52.21,11.97,78.08,8.36,44.75-22.95,66.83-54.74,67.52-22.45.49-49.54-25.15-66.89-45.67-10.97-12.97-7.84-37.98-11.03-57.59,30.35-62.01,56.69-73.02,115.8-48.42,1.65,2,3.27,4.04,4.89,6.07Z"/>
  <path class="cls-3" d="m1273.73,739.41l-2.86-.11c-6.94,14.96-19.73,15.44-33.46,13.68-5.23-1.45-9.62-4.26-13.16-8.39-5.17-4.11-12.22-7.17-15.2-12.51-17.13-30.69-33.3-61.92-49.8-92.97,35.78-11.52,72.46-34.62,107.13-31.91,55,4.31,57.98,78.43,7.36,132.21Z"/>
  <path class="cls-7" d="m1521.91,839.26c.19-43.02,26.1-73.13,64.12-74.51,44.4-1.62,70.54,37.75,69.8,106.73-.44,41.7-36.94,41.09-61.72,44.15-40.76,5.04-72.4-32.26-72.2-76.37Z"/>
  <path class="cls-3" d="m783.66,1016.3c-6.94-20.58-14.5-40.97-20.7-61.77-17.95-60.18-2.22-75.76,61.43-62.01,9.69,2.09,19.76,2.41,29.66,3.54,12.04,19.72,68.77-13.01,49.96,42.89-23.1,68.66-67,96.85-120.35,77.35Z"/>
  <path class="cls-7" d="m1717.78,731.27c35.61,34.93,62.94,61.73,90.27,88.54-30.6,28.7-57.62,63.75-93.06,83.84-23.09,13.09-52.83-42.24-46.41-105.75,2.08-20.58,27.71-38.76,49.2-66.64Z"/>
  <path class="cls-8" d="m1593.79,686.68c.22-64.66,12.56-75.93,87.56-73.78,15.36.44,42.1,18.75,43.22,30.73,5.31,57.12-34.55,109.55-78.5,110.1-52.54.66-58.11-33.44-52.27-67.05Z"/>
  <path class="cls-7" d="m1603.47,326.4c-13.5-13.97-51.28-35.61-54.67-61.76-3.06-23.57,26.04-63.23,50.92-75.61,32.5-16.18,58.08,12.62,70.95,45.72,1.22,3.13,3.1,6,4.53,9.06,32.89,70.34,25.09,82.47-71.73,82.58Z"/>
  <path class="cls-3" d="m965.83,828.43c-5.1-37.62,14.47-61.13,55.53-63.65,41.37-2.54,94.73,41.52,82.35,75.05-10.12,27.42-44.72,52.91-74.16,63.99-30.56,11.5-64.94-32.02-63.72-75.39Z"/>
  <path class="cls-3" d="m1437.79,438.8c-.97,2.06-2.6,2.95-4.68,2.66-16.93,5.7-34.07,11.39-51.2,17.09,0,0-.02-.03-.02-.03-37.45-20.02-69.4-44.14-68.7-92.67,9.4-13.45,18.79-26.9,28.19-40.36,18.47-6.52,36.94-13.03,55.41-19.54,33.53-15.37,50.39,5.97,66.05,30.19,3.04,37.02,19.85,77.46-25.06,102.66Z"/>
  <path class="cls-2" d="m1447.79,325.88c-17.1-6.64-34.21-13.29-51.15-19.93-32.11-29.88-22.31-79.49-4.39-92.69,24.1-17.75,69.99-16.78,102.86-8.72,44.43,10.9,28.45,48.68,18.26,79.35-10.21,20.37-21.04,40.17-44.36,48.47-8.08,1.18-14.68-2.56-21.22-6.48Z"/>
  <path class="cls-8" d="m1817.65,238.66c-5.26,50.68-41.28,92.87-64.25,73.85-32.07-26.56-49.28-73.44-65.6-114.52-2.41-6.06,33.08-34.6,54.49-40.89,22.04-6.48,77.7,58.99,75.36,81.57Z"/>
  <path class="cls-3" d="m1180.01,407.76c1.97-2.69,5.54-5.3,5.67-8.07,3.95-88.09,58.98-86.1,113.01-33.53,32.15,57.05,21.38,83.23-50.16,122.02-24.38-17.88-48.76-35.76-73.15-53.64-2.75-5.49-3.37-11.16-1.38-17.03,1.02-3.85,3.03-7.1,6-9.74Z"/>
  <path class="cls-7" d="m1311.24,891.9c5.37-2.15,10.74-4.29,16.04-6.44,25.3,11.86,53.68,19.9,75.05,36.85,15.32,12.16,33.69,41.3,28.61,53.87-8.68,21.47-31.93,43.36-54.03,51.54-34.8,12.87-72.86-15.32-77.68-48.83-7.25-9.56-10.98-20.3-10.9-32.36-2.22-22.37,11.84-37.87,22.92-54.63Z"/>
  <path class="cls-8" d="m1685.46,545.19c.54,42.89-19.89,56.9-89.55,54.11-13.13-.53-35.73-16.5-36.67-26.91-4.3-47.78,25.36-101.99,50.32-102.26,58.81-.63,75.15,15.52,75.89,75.05Z"/>
  <path class="cls-2" d="m1387.14,784.43c.93-1.55,2.31-2.4,3.98-2.54,11.51,1.5,23.18,4.19,34.87,4.28,65.3.51,88.2,27.88,66.54,89.82-5.96,17.04-38.53,40.53-50.46,36.42-26.49-9.13-49.47-32.06-70.08-53.11-8.52-8.7-7.29-27.02-10.49-41.04.36-6.11.7-12.14,1.05-18.17,3.42-12.78,13.45-15.1,24.59-15.66Z"/>
  <path class="cls-2" d="m1696.55,516.39c13.13-18.58,32.86-54.9,38.32-52.86,34.92,13.1,84.39,27.61,95.2,55.09,14.74,37.51-30.67,82.07-65.46,83.05-46.89,1.33-56.18-11.25-68.06-85.28Z"/>
  <path class="cls-7" d="m1615.61,105.98c-8.11-39.93,10.94-71.41,48.78-70.44,26.92.69,71.18,4.31,72,52.78.59,35.3-45.3,83.69-80.82,82.97-43.89-.89-43.76-32.28-39.95-65.3Z"/>
  <path class="cls-3" d="m1040.58,673.11c11.91-30.95,11.05-78.78,67.2-51.29,15.13,27.86,32.56,54.75,44.66,83.88,9.66,23.26-34.39,60.06-65.35,56.83-54.22-5.66-55.6-8.32-46.51-89.42Z"/>
  <path class="cls-6" d="m1178.68,423.57c-1.06,3.81-2.11,7.63-3.23,11.2-13.05,7.64-26.03,15.51-39.03,23.39-23.85-3.63-50.68-2.01-70.2-13.22-9.07-5.21-5.14-35.39-4.86-54.21.27-18.2,3.42-36.35,5.31-54.52,6.88-3.89,13.76-7.79,20.64-11.68,55.71,8.32,92.02,32.32,77.88,97.11,5.74-8.09,10.23-7.45,13.48,1.94Z"/>
  <path class="cls-5" d="m1224.24,744.58l.09-.34c26.63,11.04,19.31,34.63,20.23,55.16-5.07,15.31-4.42,31.38-6.16,47.16-2.59,11.14-8.92,19.75-17.71,26.76-25.49,13.58-50.9,25.68-72.21-6.64-9.44-26.98-33.04-59.33-25.34-79.81,15.44-41.01,60.35-44.01,101.11-42.3Z"/>
  <path class="cls-5" d="m1431.83,40.17l.09-.34c26.63,11.04,19.31,34.63,20.23,55.16-5.07,15.31-4.42,31.38-6.16,47.16-2.59,11.14-8.92,19.75-17.71,26.76-25.49,13.58-50.9,25.68-72.21-6.64-9.44-26.98-33.04-59.33-25.34-79.81,15.44-41.01,60.35-44.01,101.11-42.3Z"/>
  <path class="cls-2" d="m1738.85,107.96c26.26-28.98,41.15-59.38,59.63-61.76,17.46-2.25,46.48,20.96,56.24,40.21,11.72,23.13,11.45,54.15,9.42,81.23-.47,6.25-35.11,19.47-43.77,13.77-26.92-17.72-48.91-42.99-81.52-73.46Z"/>
  <path class="cls-2" d="m1605.35,407.67c.91-57.3,22.11-73.58,92.6-70.24,9.83.47,26.78,14.67,27.2,23.18,2.86,57.8-22.67,102.14-55.7,96.54-28.97-4.91-75.6,3.41-64.1-49.48Z"/>
  <path class="cls-7" d="m1126.91,1012.96c-27.17,7.54-53.49,14.65-64.23-24.08-9.27-33.41-28.94-68.79,19.96-87.61,20.41-7.86,42.23-12.02,63.41-17.87,44.17,44.88,34.71,108.98-19.14,129.56Z"/>
  <path class="cls-3" d="m1281.31,978.96c-.15,35.87-18.32,46.21-50.86,36.2-27.89,1.06-57.18-1.43-60.13-35.88-4.8-56.03-7.12-87.99,45.6-100.98,25.09-6.02,44.08,9.56,64.92,18.58l-.12-.14c19.88,15.3,9.13,36.06,9.69,54.82.02,10.17-2.19,19.58-9.11,27.41Z"/>
  <path class="cls-8" d="m1584.49,987.32c-15.98,17.11-29.1,42.29-48.66,49.26-23.97,8.54-80.96-50.33-72.07-74.25,7.78-20.94,29.16-46.11,49.06-51.07,32.09-7.99,62.98,30.82,71.67,76.06Z"/>
  <path class="cls-1" d="m1219.92,885.56c-44.56,11.1-38.52,47.11-41.88,80.76-4.23,42.47,35.51,32.25,52.41,48.87-.32,5.11-.63,10.26-.95,15.41-33.8-.52-67.6-1.05-101.39-1.58-.41-5.32-.82-10.64-1.22-16.01,36.53-34.2,42.86-77.11,19.14-129.65.81-5.53,1.62-11.1,2.43-16.67,23.67-.02,47.33-.05,71-.07,5.27,6.19,6.24,12.49.45,18.94Z"/>
  <path class="cls-1" d="m1248.53,488.17c5.41-6.41,9.77-14.3,16.39-18.98,36.93-26.12,51.9-58.96,33.79-103.03,4.81-.1,9.63-.2,14.47-.3,22.91,30.89,45.81,61.78,68.71,92.67-53.72-24.65-88.09,6.31-120.67,42.37-4.22-4.24-8.46-8.48-12.69-12.72Z"/>
  <path class="cls-1" d="m1472.15,325.31c13.74-13.8,27.48-27.6,41.21-41.42.32,7.7.64,15.4.97,23.11-9.98,10.23-19.97,20.46-29.95,30.68-6.66-1.55-10.73-5.68-12.23-12.37Z"/>
  <path class="cls-1" d="m1281.31,978.96c.49-10.43.97-20.85,1.46-31.28,6.08-5.48,12.03-5.48,17.85.42-.46,10.26-.93,20.52-1.4,30.79-5.98.03-11.94.05-17.91.07Z"/>
  <path class="cls-8" d="m620.19,732.46c13.27,6.59,26.17,14.17,39.95,19.4,7.83,2.97,22.12,5.99,24.97,2.32,28.05-36.13,55.09-12.75,79.51,2.03,40.02,24.21,8.08,58.9,4.62,86.58-2.06,16.47-27.53,36.95-46.33,42.51-20.84,6.16-46.06-2.62-69.35-4.95-11.52-2.16-23.1-4.04-34.58-6.41-45.19-9.36-74.08-27.25-71.54-83.69,2.47-54.9,42.27-46.89,72.74-57.77Z"/>
  <path class="cls-1" d="m376.66,305.81c4.12,3.77,8.24,7.54,12.36,11.32,1.03,6.99-.46,14.11-5.63,18.22-40.44,32.13-45.6,66.53-8.46,104.98,4.56,4.72,5.47,11.86,1.75,18.42-4.22,3.66-8.43,7.32-12.65,10.98-23.9,14.71-45.36-25.22-70.36-2.56-21.13,19.16-13,48.24-26.02,69.82-3.54,5.87-7.73,10.96-14.23,13.68-5.88-.14-11.77-.28-17.65-.42-1.87-1.47-3.74-2.95-5.63-4.41-4.43-7.55-5.31-15.76-4.85-24.36,3.31-61.34-7.42-70.5-67.83-58.07-9.35,3.17-18.63,4.08-27.61-1.21-5.76-1.24-11.53-2.47-17.29-3.71,35.94-39.6,4.62-89.66,20.41-132.4,7.41-2.82,14.83-5.63,22.24-8.45,13.99,11.34,18.49,27.61,22.83,44.02,2.59,9.79,5.45,19.57,11.07,28.13,16.6,25.32,59.49,38.94,85,26.71,23.05-11.05,32.3-30.92,25.59-54.4-10.16-35.58-38.6-43.63-71.74-40.26-24.58,2.5-49.51,13.52-72.96-4-4.09-6.7-8.18-13.4-12.26-20.1,13.9-19.92,36.44-20.7,56.77-23.38,22.89-3.02,39.83-12.74,52.22-31.68,8.76-6.5,18.37-7.46,28.58-4.42,1.41.77,3.76,1.31,4.11,2.47,14.01,45.68,44.52,67.64,92.23,65.09Z"/>
  <path class="cls-7" d="m631.56,907.28c-5.52,17.35-11.36,34.6-16.49,52.06-23.17,78.77-36.94,85.98-116.57,60.45-24.91-35.81-36.69-75.98-6.11-110.89,37.14-42.4,81.42-39.91,139.17-1.61Z"/>
  <path class="cls-8" d="m327.32,676.9c.31,32.27-57.66,86.7-96.1,85.57-32.62-.96-49.61-18.49-48.72-55.59,1.78-74.05,17.15-105.36,58.13-104.45,36.79.82,86.38,43.43,86.68,74.48Z"/>
  <path class="cls-2" d="m386.28,827.36c9.55,41.55-9.92,60.31-53.12,60-56.11-.4-84.9-25.59-87.58-78.21-1.12-22.09,65.09-77.69,91.8-71.81,45.88,10.1,50.26,48.27,48.9,90.02Z"/>
  <path class="cls-3" d="m392.29,550.58c-2.01-45.74,9.79-78.42,64.27-81.43,37.37-2.06,59.16,12.75,72.57,46.11,4.2,10.45,12.72,19.15,19.27,28.64,5.88,5.37,6.03,11.62,2.83,18.39-9.73,8.64-20.46,16.51-23.95,30.23-4.25,8.5-9.67,15.47-20.32,15.42-19.26-2.08-38.83-7.41-57.71-5.58-39.78,3.86-59.03-11.15-56.95-51.79Z"/>
  <path class="cls-7" d="m253.42,550.66c3.15-11.37,7.32-22.56,9.3-34.13,13.89-81.09,33.86-90.43,101.32-46.81,2.53,26.94,5.07,53.89,7.62,80.83-5.3,25.95,5.29,60.93-33.76,68.67-25.49,5.05-78.73-40.15-84.48-68.56Z"/>
  <path class="cls-6" d="m153.1,743.68c-36.95-3.38-73.9-6.76-110.85-10.14,11.4-39.39,20.09-79.94,35.93-117.44,4.47-10.59,35.06-21.43,44.56-16.03,17.39,9.89,37.11,30.67,39.37,48.96,3.8,30.7-5.33,63.01-9.02,94.64Z"/>
  <path class="cls-7" d="m102.56,835.83c11.72-27.76,9.21-65.57,50.64-72.37,60.83,11.92,91.07,47.02,79.39,104.16-4.11,20.09-27.08,42.77-46.97,51.41-22.44,9.75-80.25-52.44-83.06-83.21Z"/>
  <path class="cls-1" d="m538.51,804.13c-8.59,50.28-41.52,90-78.6,89.88-26.71-.08-52.92-48.19-52.63-96.61.17-29.01,45.05-66.13,84.96-56.63,19.32,4.6,31.08,41.23,46.27,63.37Z"/>
  <path class="cls-2" d="m325.84,954.42c-1.44,58.05-27.02,87.66-80.16,80.91-19.32-2.46-43.19-34.27-49.67-57.08-8.78-30.87,44.74-84.16,74.54-79.99,33.95,4.75,69.92,10.98,55.29,56.16Z"/>
  <path class="cls-7" d="m260.5,244.26c-2.4,26.26-10.75,43.6-42.93,42.84-24.85-.58-49.88,6.79-74.83,10.63-1.73-33.43-14.32-71.39-2.76-99.27,19.64-47.4,83.35-42.04,121.15,4.79,6.24,13.77,6.7,27.45-.62,41.01Z"/>
  <path class="cls-2" d="m416.36,621.59c55.4.79,70.51,15.75,70.96,68.48.17,20.25-56.95,57.52-86.8,52.21-34.75-6.18-46.27-30.52-46.57-66.25-.4-47.78,24.83-57.69,62.4-54.45Z"/>
  <path class="cls-7" d="m132.98,326.08c2.76,13.05,3.54,26.94,8.64,38.99,16.94,40.01,6.85,70.5-29.05,93.41-15.7,6.87-31.41,13.75-47.12,20.62-4.65-18.18-11.87-36.16-13.29-54.59-1.78-23.19-.79-47.04,2.54-70.09,5.84-40.43,46.32-54.4,78.28-28.34Z"/>
  <path class="cls-8" d="m274.81,41.91c48.12,25.08,53.78,48.27,28.15,115.27-21.04-.4-42.19.51-63.08-1.38-47.86-4.33-50-37.51-47.96-75.66,2.19-41.1,35.21-32.23,58.14-39.36,7.42-2.31,16.45.6,24.74,1.13Z"/>
  <path class="cls-3" d="m376.66,305.81c-59.99,25.28-86.46,8.25-95.5-61.46-8.45-13.52-8.2-27.18-.71-40.98.46-3.57.92-7.15,1.38-10.72-.46-3.65.74-6.7,3.37-9.21,6.8-3.55,13.6-7.11,20.41-10.66,78.44,15.55,99.45,54.89,71.06,133.03Z"/>
  <path class="cls-7" d="m506.96,607.96c3.85-3.86,7.71-7.72,11.56-11.58,7.19-13.83,17.58-22.55,34.09-21.57,4.82.97,9.18,2.99,13.21,5.79,16.29,17.95,42.28,25.59,52.83,49.79,3.88,30.14-5.89,57.06-19.38,83.11-24.7,2.96-69.42,12.49-70.94,7.83-11.81-36.25-15.31-75.24-21.38-113.38Z"/>
  <path class="cls-2" d="m129.85,462.18c7.6-1.84,15.21-3.69,22.81-5.53,35.45,23.84,48.95,66.45,79.83,94.2,0,0,3.26-.61,3.27-.61-18.83,16.71-41.68,50.02-55.63,46.61-27.51-6.72-53.49-30.73-73.74-53.34-19.3-21.55-12.23-46.53,11.75-64.94,5.09-3.91,7.87-10.85,11.71-16.39Z"/>
  <path class="cls-6" d="m714.81,622.57c-.88,11.59-1.79,23.19-2.64,34.78-4.78,65.29-17.22,73.82-81.42,55.79-2.88-11.38-5.77-22.76-8.65-34.14-14.15-17.98-4.81-37.81-4.44-56.95,12.17-14.46,29.38-18.07,46.5-21.99,19.97.45,43.43-6.85,50.65,22.51Z"/>
  <path class="cls-1" d="m627.6,624.56c-1.84,18.17-3.68,36.33-5.51,54.47-7.59,11.47-15.2,22.97-22.81,34.47,1.37-29.85,2.75-59.7,4.13-89.56,8.22-5.95,16.26-4.76,24.2.62Z"/>
  <path class="cls-1" d="m280.45,203.37c.25,13.66.51,27.32.74,40.98-6.93-.03-13.82-.06-20.7-.08.21-13.67.41-27.34.62-41.01,6.46.04,12.9.08,19.34.12Z"/>
  <path class="cls-1" d="m285.19,183.44c-.33,3.36-1.45,6.44-3.36,9.22-.21-2.46-.74-4.96-.4-7.34.11-.79,2.44-1.26,3.76-1.88Z"/>
  <path class="cls-3" d="m1050.8,335.88c-3.72,11.24-7.61,22.42-11.12,33.73-6.66,21.45-8.47,57.79-20.52,61.58-30.97,9.74-67.2,9.96-99.88,4.77-33.36-5.3-29.55-30.7-14.18-54.15,16.68-25.43,33.65-50.68,50.49-76,31.34-23.25,72.17-10.35,95.22,30.08Z"/>
  <path class="cls-8" d="m1017.92,106.56c-.38,36.91-45.42,88.62-76.35,84.21-44.29-6.31-61.61-34.41-57.86-78.86,2.46-29.17,48.5-79.31,77.32-80.26,31.32-1.03,57.33,33.21,56.89,74.91Z"/>
  <path class="cls-3" d="m943.78,293.58c-6.94,6.96-16.58,12.69-20.36,21.09-20.73,45.99-47.4,46.8-80.15,12.74-36.35-25.89-53.4-58.78-21.06-96.72,24.69-28.95,57.12-48.64,97.52-23.26,34.21,21.49,42.76,49.91,24.05,86.15Z"/>
  <path class="cls-5" d="m680.55,325.39c-43.52,14.7-86.71,15.34-125.76-10.81-9.65-6.46-18.6-25.84-16.16-36.59,9.79-43.02,14.03-95.2,81.15-82.78,20.26,43.4,40.51,86.79,60.77,130.18Z"/>
  <path class="cls-5" d="m33.89,179.72c28.95,5.3,53.39,18.38,67.28,45.22,3.43,6.63,2.5,20.3-2.18,25.57-18.72,21.1-37.15,49.08-71.01,21.21,1.97-30.67,3.94-61.34,5.91-92Z"/>
  <path class="cls-6" d="m1138.18,182.2c66.41,7.14,99.3,62.32,68.03,119.52-6.43,11.76-29.72,20.56-44.71,19.82-24.51-1.2-48.59-11.35-72.86-17.72,16.51-40.54,33.02-81.08,49.53-121.62Z"/>
  <path class="cls-7" d="m864.31,140.53c8.29,39.48-27.29,62.79-50.3,56.85-24.8-6.4-50.59-40.37-59.98-67.82-12.62-36.89,7.85-65.36,51.22-68.16,37.66-2.43,58.19,24.49,59.07,79.13Z"/>
  <path class="cls-3" d="m620.65,182.01c10.11-43.41,20.22-86.83,30.32-130.24,26.95,12.06,60.87,18.3,77.79,38.73,7.98,9.64-10.32,54.37-28.22,68.94-19.74,16.06-52.69,15.75-79.89,22.57Z"/>
  <path class="cls-5" d="m1045.17,156.81c19.13,24.76,41.98,41.65,39.76,54.02-4.98,27.88-15.81,64.04-36.56,77.1-20.37,12.81-85.07-45.72-74.71-63.23,14.27-24.13,41.48-40.55,71.51-67.88Z"/>
  <path class="cls-5" d="m1479.9,626.93c30.85,5.25,59.09,2.21,65.84,12.81,15.22,23.88,31.75,57.82,25.32,81.48-6.31,23.22-93.55,23.99-97.79,4.09-5.84-27.42,3.05-57.93,6.63-98.38Z"/>
  <path class="cls-8" d="m783.3,229.83c-1.04,61.24-43.43,70.3-59.7,61.64-23.21-12.36-34.46-47.37-50.82-72.71,19.45-10.77,42.04-33.59,57.62-29.49,23.27,6.11,41.6,31.17,52.91,40.57Z"/>
  <path class="cls-7" d="m824.65,335.67c3.73,6.33,7.46,12.67,11.19,19-28.96,33.17-67.23,45.45-109.34,49.2-7.81-2.16-13.83-6.86-18.63-13.28-8.17-13.98-8.77-28.95-5.56-44.39,42-46.91,72.21-49.51,122.35-10.52Z"/>
  <path class="cls-1" d="m702.31,346.19c5.06,13.34,10.12,26.67,15.18,40.01-4.37,4.2-9.53,5.71-15.48,4.57-17.2-10.51-23.69-24.06-12.06-42.76,0,0,2.14-2.18,2.15-2.19,3.41.12,6.81.25,10.21.38Z"/>
  <path class="cls-7" d="m376.68,458.74c-18.21-24.09-57.12-40.79-39.32-78.94,11.1-23.77,34.02-41.98,51.64-62.68,85.46-2.82,107.22,21.8,90.03,106.12-2.06,10.12-17.33,21.88-28.58,24.87-23.85,6.34-49.09,7.41-73.77,10.63Z"/>
  <path class="cls-3" d="m430.71,184.6c29.26-17.73,58.19-17.07,86.79,1.57,29.44,40.65,1.35,75.23-16.72,106.8-5.25,9.18-39.6,6.49-58.76,1.73-42.74-10.6-47.54-65.32-11.32-110.1Z"/>
  <path class="cls-6" d="m689.95,348c4.17,13.05,8.33,26.09,12.5,39.14,15.92,17.92,25.64,37.4,15.55,61.94-15.36,27.02-38.16,41.99-69.47,43.21-17.25,1.37-34.08.04-49.7-8.38.85-23.32,1.71-46.64,2.56-69.96l-.08.12c17.5-38.32,40.21-69.59,88.65-66.06Z"/>
  <path class="cls-3" d="m601.3,414.07s.08-.12.08-.12c-10.16,16.36-24.58,31.52-29.59,49.34-10.64,37.85-36.18,29.5-42.78,7.69-12.91-42.69-13.53-89.14-18.07-134.16-.04-.39,18.16-6.31,24.25-2.99,21.94,11.96,44.35,24.62,62.3,41.59,7.07,6.69,2.87,25.4,3.8,38.63Z"/>
  <path class="cls-6" d="m548.59,556.22c-.06-4.13-.12-8.27-.19-12.36-1.47-36.96,27.49-35.14,51.01-40.28,16.42-7.96,33.61-8.93,51.29-5.84,38.11,10.53,41.88,43.72,46.37,74.57,3.67,25.2-18.42,27.48-35.61,32.64-39.49,15.91-71.11-2-101.8-23.94l-.03-.05c-7.32-6.61-12.51-14.18-11.04-24.75Z"/>
  <path class="cls-1" d="m649.89,504.8c-16.83-.39-33.65-.78-50.48-1.19-.2-6.6-.39-13.17-.58-19.72,17.07-.26,34.15-.53,51.23-.81,8.46,7.3,8.28,14.54-.16,21.72Z"/>
  <path class="cls-3" d="m853.32,633.31c1.71,13.27,3.43,26.53,5.16,39.8,1.99,45.09-18.8,71.08-64.39,69.02-41.99-1.89-63.39-31.7-62.18-79.53.34-13.49,1.38-26.96,2.09-40.44,44.64-47.97,88.75-43.84,119.31,11.15Z"/>
  <path class="cls-3" d="m1226.09,504.6c1.71,13.27,3.43,26.53,5.16,39.8,1.99,45.09-18.8,71.08-64.39,69.02-41.99-1.89-63.39-31.7-62.18-79.53.34-13.49,1.38-26.96,2.09-40.44,44.64-47.97,88.75-43.84,119.31,11.15Z"/>
  <path class="cls-1" d="m853.32,633.31c-36.12-43.15-77.1-34.01-119.33-11.15-6.39.14-12.79.27-19.19.41-17.96-4-35.92-7.99-53.89-11.99-5.64-4-5.87-8.28-.69-12.86,34.43-18.58,30.07-57.8-10.33-92.9.05-7.27.11-14.52.16-21.76,20.08-12.08,40.17-24.17,60.25-36.27,7.89,1.92,12.67,7.05,15.09,14.63-5.98,26.94-23.42,51.93-7.9,82.13,10.06,19.56,19.83,35.37,44.46,32.5,20.69-2.41,35.18-13.58,36.76-34.88,1.65-22.34,10.57-48.34-18.82-61.55-16.52-7.43-36.85-5.91-49.99-21.45-.23-16.62,12.15-21.99,24.27-27.66,33.34-5.96,64.93,1.72,96.12,12.5,1.31,5.51,2.62,11.02,3.93,16.53-9.23,54.72-12.54,109.02,11.31,161.39-4.07,4.12-8.15,8.24-12.22,12.35Z"/>
  <path class="cls-1" d="m1178.68,423.57c-4.47-.65-8.95-1.31-13.45-1.95,4.9-4.61,9.83-9.23,14.77-13.86-.44,5.27-.88,10.54-1.32,15.81Z"/>
  <path class="cls-4" d="m1086.44,499.91c-6.01,92.57-34.47,116.56-90.81,90.55-17.68-8.16-57.9-114.24-45.29-118.83,26.69-9.72,58.67-15.39,85.83-9.78,21.11,4.36,38.2,28.32,50.27,38.07Z"/>
  <path class="cls-6" d="m865.53,620.95c-40.51-48.79-44.69-108.41-11.32-161.4,49.66-15.35,67.34-6,80.24,42.52.86,3.25.88,6.72,1.68,9.99,21.7,88.35,21.27,89.02-70.6,108.89Z"/>
  <path class="cls-6" d="m850.29,443.03c-32.66-1.56-65.33-3.11-97.99-4.67-36.79,5.27-37.85-13.3-26.54-40.11,36.69-14.52,73.37-29.04,110.07-43.57,48.47,37.78,50.52,50.3,14.46,88.35Z"/>
  <path class="cls-1" d="m1219.92,885.56c-.15-6.31-.3-12.63-.44-18.94,3.4-6.84,6.81-13.68,10.21-20.52,5.84-5.93,11.57-5.82,17.19.31,11.32,16.82,22.64,33.65,33.97,50.47-20.31-3.77-40.62-7.54-60.93-11.32Z"/>
  <path class="cls-1" d="m1234.52,804.86c-3.4-20.21-6.79-40.41-10.19-60.62,15.51-1.65,31.02-3.3,46.54-4.95-7.24,21.99-14.49,43.98-21.73,65.97-4.98,3.78-9.85,3.65-14.61-.4Z"/>
  <path class="cls-1" d="m1300.63,948.1c-5.96-.14-11.91-.27-17.86-.42-.67-16.99-1.35-33.97-2.03-50.95,10.17-1.61,20.33-3.21,30.5-4.83-3.53,18.73-7.07,37.46-10.61,56.19Z"/>
  <path class="cls-1" d="m1234.52,804.86c4.87.14,9.74.27,14.61.41-.75,13.71-1.5,27.42-2.25,41.14-5.73-.1-11.47-.21-17.2-.31,1.61-13.74,3.22-27.49,4.83-41.23Z"/>
  <path class="cls-1" d="m1387.14,784.43c-8.2,5.2-16.4,10.39-24.59,15.62.13-7.56.26-15.15.39-22.75,8.07,2.37,16.14,4.75,24.21,7.12Z"/>
  <path class="cls-1" d="m1472.15,325.31c4.08,4.12,8.15,8.25,12.23,12.37,3.42,33.59,6.85,67.17,10.63,104.33-11.08-.62-34.16-1.92-57.23-3.22,3.33-37.64,6.67-75.28,10-112.92,8.12-.19,16.24-.37,24.37-.56Z"/>
  <path class="cls-1" d="m651.15,889.61c3.66-47.05,7.32-94.1,10.98-141.15,3.83,1.19,7.66,2.38,11.5,3.57-1.51,46.62-3.03,93.25-4.54,139.87-5.98-.76-11.96-1.53-17.94-2.29Z"/>
  <path class="cls-4" d="m155,317.83c26.65-3.81,54.35-13.93,79.67-9.71,27.11,4.52,59.29,16.67,75.29,36.72,10.74,13.47,5.83,56.48-7.67,68.25-17.31,15.1-50.82,18.1-76.38,15.76-67.78-6.22-59.04-66.25-70.7-111.23,0,0-.21.21-.21.21Z"/>
  <path class="cls-2" d="m232.5,550.85c-50.01-11.39-56.41-60.05-79.83-94.18,24.24-36.6,51.94-9.29,73.73.74,10.09,4.64,12.14,32.05,13.35,49.44,1,14.43-4.59,29.32-7.25,44Z"/>
  <path class="cls-1" d="m531.04,585.11c-5.3,12.5-14.02,30.1-29.66,30.4-6.17.12-13.41-1.82-19.63-2.36-3.55-.31-21.03-7.19-22.27-6.71,13.74-5.4,29.81-5.65,42.48-12.78,5.06-2.85,12.01-6.77,14.88-11.94s1.19-11.83,5.21-16.61c2.92-3.47,9.34-10.19,11.52-14.27,3.29-6.15.58-9.39,3.88-15.96,1.38-2.75-6.13-19.16-3.51-20.77s18.37-9.33,17.91,13.82c.76,13.41,1.14,31.81-3.51,44.4"/>
  <path class="cls-1" d="m660.22,597.71c.23,4.29.46,8.58.69,12.87-11.13,4.65-22.26,9.31-33.35,13.97-8.01-.2-16.05-.41-24.13-.61-14.61-14.31-29.2-28.61-43.78-42.92,33.52,5.56,67.04,11.13,100.57,16.69Z"/>
  <path class="cls-1" d="m725.76,398.24c8.85,13.37,17.69,26.74,26.54,40.11-6.81,6.39-13.63,12.78-20.44,19.17-1.88,3.34-4.51,4.3-7.99,2.5-4.52-4.41-9.04-8.82-13.56-13.23-2.63-19.89-5.24-39.77-7.86-59.65,4.99-.32,9.97-.64,15-.95,2.8,4.02,5.56,8.04,8.31,12.05Z"/>
  <path class="cls-4" d="m723.87,460.03c2.84-.27,5.5-1.1,7.99-2.5,11.57,1.86,23.09,4.85,34.72,5.39,61.37,2.87,46.74,47,44.55,83.3-2.57,42.58-34.98,43.81-65.69,43.31-31.72-.52-62.69-73.42-44.05-102.59,6.25-9.77,14.92-17.99,22.48-26.91Z"/>
  <path class="cls-4" d="m1493.62,53.35c2.84-.27,5.5-1.1,7.99-2.5,11.57,1.86,23.09,4.85,34.72,5.39,61.37,2.87,46.74,47,44.55,83.3-2.57,42.58-34.98,43.81-65.69,43.31-31.72-.52-62.69-73.42-44.05-102.59,6.25-9.77,14.92-17.99,22.48-26.91Z"/>
  <path class="cls-4" d="m527.94,806.92c1.17,24.44-32.82,63.6-60.99,69.46-32.22,6.7-38.65-17.33-45.93-40.01-8.75-2.84-13.49-9.41-14.22-18.1-2.83-33.55,44.84-75.6,80.35-71.22,9.49,12.17,18.98,24.33,28.46,36.5,11.89,3.63,11.32,13.91,12.32,23.36Z"/>
  <path class="cls-5" d="m375.72,1037.96l-.02.35c-28.29-5.48-25.78-30.06-30.74-50,1.94-16.01-1.88-31.63-3.3-47.45.34-11.43,4.83-21.14,12.06-29.77,22.29-18.42,44.8-35.37,72.08-7.97,14.59,24.55,44.13,51.52,40.63,73.13-7.01,43.28-50.43,55.23-90.71,61.71Z"/>
  <path class="cls-8" d="m33.33,518.1c60.58,33.9,59.34,67.74-.19,101.51.07-33.86.13-67.68.19-101.51Z"/>
</svg>